<svg width="285" height="34.016" xmlns="http://www.w3.org/2000/svg">

 <g>
  <title>background</title>
  <rect fill="none" id="canvas_background" height="36.016" width="287" y="-1" x="-1"/>
 </g>
 <g>
  <title>Layer 1</title>
  <g id="svg_1">
   <polygon id="svg_2" points="145.702,8.501 145.702,10.404 153.301,10.404 153.301,29.505 155.233,29.505 155.233,10.404    162.834,10.404 162.834,8.501  " fill="#ffffff"/>
   <path id="svg_3" d="m175.628,21.029c2.933,-0.511 5.685,-2.334 5.685,-6.179c0,-4.686 -4.074,-6.348 -7.562,-6.348l-8.044,0l0,21.004l1.931,0l0,-8.309l5.644,0l7.516,8.309l2.532,0l-7.702,-8.477zm3.755,-6.179c0,4.125 -4.291,4.445 -5.605,4.445l-6.141,0l0,-8.891l6.141,0c1.314,0 5.605,0.32 5.605,4.446z" fill="#ffffff"/>
   <path id="svg_4" d="m195.035,8.501l-1.604,0l-9.662,21.004l2.111,0l2.797,-6.076l11.083,0l2.798,6.076l2.109,0l-9.632,-21.004zm3.908,13.026l-9.394,0l4.696,-10.246l4.698,10.246z" fill="#ffffff"/>
   <path id="svg_5" d="m215.919,27.884c-4.319,0 -8.967,-2.699 -8.967,-8.627c0,-4.541 3.062,-9.136 8.911,-9.136c1.855,0 3.73,0.474 5.145,1.301l0.92,0.539l0,-2.129l-0.308,-0.177c-1.622,-0.927 -3.696,-1.437 -5.843,-1.437c-5.345,0 -10.756,3.792 -10.756,11.039c0,3.287 1.196,6.039 3.459,7.958c1.928,1.634 4.598,2.571 7.326,2.571c2.322,0 4.422,-0.507 6.072,-1.467l0.304,-0.177l0,-2.13l-0.923,0.543c-1.516,0.896 -3.262,1.329 -5.34,1.329z" fill="#ffffff"/>
   <polygon id="svg_6" points="234.577,18.739 242.204,8.501 239.858,8.501 232.906,17.798 227.721,17.798 227.721,8.501    225.791,8.501 225.791,29.505 227.721,29.505 227.721,19.701 232.887,19.701 240.629,29.505 243.034,29.505  " fill="#ffffff"/>
  </g>
  <g id="svg_7">
   <path id="svg_8" d="m0.746,29.513l0,-21.007l8.853,0c4.262,0 8.614,1.53 8.614,7.082c0,3.481 -1.71,5.373 -4.022,6.302l5.792,7.623l-6.271,0l-5.012,-6.844l-2.4,0l0,6.844l-5.554,0zm5.553,-11.344l3.54,0c1.591,0 2.671,-0.81 2.671,-2.432c0,-1.62 -1.081,-2.43 -2.671,-2.43l-3.54,0l0,4.862z" fill="#FFFFFF"/>
   <path id="svg_9" d="m20.734,29.513l8.253,-21.007l6.002,0l8.253,21.007l-5.703,0l-1.2,-3.301l-8.703,0l-1.201,3.301l-5.701,0zm8.553,-7.803l5.402,0l-2.162,-6.062c-0.18,-0.51 -0.359,-1.021 -0.539,-2.131c-0.18,1.11 -0.36,1.621 -0.541,2.131l-2.16,6.062z" fill="#FFFFFF"/>
   <path id="svg_10" d="m69.141,8.506l0,21.007l-5.552,0l0,-11.164l-4.501,6.902l-3.181,0l-4.5,-6.933l0,11.194l-5.553,0l0,-21.006l5.252,0l6.393,9.843l6.392,-9.843l5.25,0z" fill="#FFFFFF"/>
   <path id="svg_11" d="m80.875,8.055c2.611,0 5.223,0.63 7.053,1.681l0,5.102c-1.801,-1.351 -4.171,-2.01 -6.602,-1.981c-2.041,0.031 -2.671,0.571 -2.671,1.351c0,2.731 10.923,1.891 10.923,9.333c0,4.982 -3.81,6.422 -8.402,6.422c-3.031,0 -5.853,-0.69 -8.073,-1.92l0,-5.252c2.491,1.711 5.252,2.371 7.653,2.371c2.19,0 3.121,-0.361 3.121,-1.411c0,-3.03 -10.924,-2.011 -10.924,-9.513c0,-4.202 3.601,-6.183 7.922,-6.183z" fill="#FFFFFF"/>
  </g>
  <g id="svg_12">
   <g id="svg_13">
    <path id="svg_14" d="m117.726,33.724c-0.276,0 -0.534,-0.023 -0.767,-0.059c-1.151,-0.18 -2.337,-0.786 -3.174,-1.623l-3.268,-3.267c-0.391,-0.391 -0.391,-1.023 0,-1.414s1.024,-0.391 1.414,0l3.268,3.267c0.423,0.422 1.188,0.924 2.067,1.061c1.004,0.154 1.95,-0.201 2.809,-1.061l14.334,-14.334c0.391,-0.391 1.024,-0.391 1.415,-0.001c0.391,0.391 0.391,1.023 0.001,1.414l-14.335,14.335c-1.325,1.327 -2.684,1.682 -3.764,1.682z" fill="#FFFFFF"/>
   </g>
   <g id="svg_15">
    <path id="svg_16" d="m100.161,18.005c-0.256,0 -0.512,-0.098 -0.707,-0.293c-0.391,-0.39 -0.391,-1.023 -0.001,-1.414l14.332,-14.331c2.826,-2.827 6.156,-1.55 7.705,0l3.307,3.306c0.391,0.39 0.391,1.023 0,1.414s-1.023,0.39 -1.415,0l-3.307,-3.306c-0.099,-0.1 -2.466,-2.411 -4.876,0l-14.33,14.33c-0.195,0.196 -0.452,0.294 -0.708,0.294z" fill="#FFFFFF"/>
   </g>
   <g id="svg_17">
    <path id="svg_18" d="m105.719,23.55c-0.256,0 -0.512,-0.098 -0.708,-0.294c-0.39,-0.39 -0.39,-1.022 0,-1.413l12.062,-12.062c0.391,-0.391 1.023,-0.391 1.414,0s0.391,1.024 0,1.414l-12.062,12.062c-0.195,0.196 -0.45,0.293 -0.706,0.293z" fill="#FFFFFF"/>
   </g>
   <g id="svg_19">
    <path id="svg_20" d="m117.533,24.561c-0.255,0 -0.511,-0.097 -0.707,-0.293c-0.391,-0.391 -0.391,-1.023 0,-1.414l12.073,-12.073c0.391,-0.39 1.023,-0.391 1.414,0s0.391,1.024 0,1.415l-12.073,12.072c-0.195,0.195 -0.451,0.293 -0.707,0.293z" fill="#FFFFFF"/>
   </g>
  </g>
  <g id="svg_21"/>
  <g id="svg_22"/>
  <g id="svg_23"/>
  <g id="svg_24"/>
  <g id="svg_25"/>
  <g id="svg_26"/>
  <text stroke="#000" transform="matrix(1.1533349378489672,0,0,1.188129025279864,-36.200106799872735,-6.325359621976139) " xml:space="preserve" text-anchor="start" font-family="Helvetica, Arial, sans-serif" font-size="24" id="svg_27" y="30" x="246" stroke-width="0" fill="#ffffff">2.0</text>
 </g>
</svg>