<?xml version="1.0" encoding="utf-8"?>
<!-- Generator: Adobe Illustrator 16.0.0, SVG Export Plug-In . SVG Version: 6.00 Build 0)  -->
<!DOCTYPE svg PUBLIC "-//W3C//DTD SVG 1.1//EN" "http://www.w3.org/Graphics/SVG/1.1/DTD/svg11.dtd">
<svg version="1.1" id="Ebene_1" xmlns="http://www.w3.org/2000/svg" xmlns:xlink="http://www.w3.org/1999/xlink" x="0px" y="0px"
	 width="243.779px" height="34.016px" viewBox="0 0 243.779 34.016" enable-background="new 0 0 243.779 34.016"
	 xml:space="preserve">
<g>
	<polygon fill="#FFFFFF" points="145.702,8.501 145.702,10.404 153.301,10.404 153.301,29.505 155.233,29.505 155.233,10.404 
		162.834,10.404 162.834,8.501 	"/>
	<path fill="#FFFFFF" d="M175.628,21.029c2.933-0.511,5.685-2.334,5.685-6.179c0-4.686-4.074-6.348-7.562-6.348h-8.044v21.004h1.931
		v-8.309h5.644l7.516,8.309h2.532L175.628,21.029z M179.383,14.85c0,4.125-4.291,4.445-5.605,4.445h-6.141v-8.891h6.141
		C175.092,10.404,179.383,10.724,179.383,14.85z"/>
	<path fill="#FFFFFF" d="M195.035,8.501h-1.604l-9.662,21.004h2.111l2.797-6.076h11.083l2.798,6.076h2.109L195.035,8.501z
		 M198.943,21.527h-9.394l4.696-10.246L198.943,21.527z"/>
	<path fill="#FFFFFF" d="M215.919,27.884c-4.319,0-8.967-2.699-8.967-8.627c0-4.541,3.062-9.136,8.911-9.136
		c1.855,0,3.73,0.474,5.145,1.301l0.92,0.539V9.832l-0.308-0.177c-1.622-0.927-3.696-1.437-5.843-1.437
		c-5.345,0-10.756,3.792-10.756,11.039c0,3.287,1.196,6.039,3.459,7.958c1.928,1.634,4.598,2.571,7.326,2.571
		c2.322,0,4.422-0.507,6.072-1.467l0.304-0.177v-2.13l-0.923,0.543C219.743,27.451,217.997,27.884,215.919,27.884z"/>
	<polygon fill="#FFFFFF" points="234.577,18.739 242.204,8.501 239.858,8.501 232.906,17.798 227.721,17.798 227.721,8.501 
		225.791,8.501 225.791,29.505 227.721,29.505 227.721,19.701 232.887,19.701 240.629,29.505 243.034,29.505 	"/>
</g>
<g>
	<path fill="#FFFFFF" d="M0.746,29.513V8.506h8.853c4.262,0,8.614,1.53,8.614,7.082c0,3.481-1.71,5.373-4.022,6.302l5.792,7.623
		h-6.271l-5.012-6.844h-2.4v6.844H0.746z M6.299,18.169h3.54c1.591,0,2.671-0.81,2.671-2.432c0-1.62-1.081-2.43-2.671-2.43h-3.54
		V18.169z"/>
	<path fill="#FFFFFF" d="M20.734,29.513l8.253-21.007h6.002l8.253,21.007h-5.703l-1.2-3.301h-8.703l-1.201,3.301H20.734z
		 M29.287,21.71h5.402l-2.162-6.062c-0.18-0.51-0.359-1.021-0.539-2.131c-0.18,1.11-0.36,1.621-0.541,2.131L29.287,21.71z"/>
	<path fill="#FFFFFF" d="M69.141,8.506v21.007h-5.552V18.349l-4.501,6.902h-3.181l-4.5-6.933v11.194h-5.553V8.506h5.252l6.393,9.843
		l6.392-9.843H69.141z"/>
	<path fill="#FFFFFF" d="M80.875,8.055c2.611,0,5.223,0.63,7.053,1.681v5.102c-1.801-1.351-4.171-2.01-6.602-1.981
		c-2.041,0.031-2.671,0.571-2.671,1.351c0,2.731,10.923,1.891,10.923,9.333c0,4.982-3.81,6.422-8.402,6.422
		c-3.031,0-5.853-0.69-8.073-1.92v-5.252c2.491,1.711,5.252,2.371,7.653,2.371c2.19,0,3.121-0.361,3.121-1.411
		c0-3.03-10.924-2.011-10.924-9.513C72.953,10.036,76.554,8.055,80.875,8.055z"/>
</g>
<g>
	<g>
		<path fill="#FFFFFF" d="M117.726,33.724c-0.276,0-0.534-0.023-0.767-0.059c-1.151-0.18-2.337-0.786-3.174-1.623l-3.268-3.267
			c-0.391-0.391-0.391-1.023,0-1.414s1.024-0.391,1.414,0l3.268,3.267c0.423,0.422,1.188,0.924,2.067,1.061
			c1.004,0.154,1.95-0.201,2.809-1.061l14.334-14.334c0.391-0.391,1.024-0.391,1.415-0.001c0.391,0.391,0.391,1.023,0.001,1.414
			L121.49,32.042C120.165,33.369,118.806,33.724,117.726,33.724z"/>
	</g>
	<g>
		<path fill="#FFFFFF" d="M100.161,18.005c-0.256,0-0.512-0.098-0.707-0.293c-0.391-0.39-0.391-1.023-0.001-1.414l14.332-14.331
			c2.826-2.827,6.156-1.55,7.705,0l3.307,3.306c0.391,0.39,0.391,1.023,0,1.414s-1.023,0.39-1.415,0l-3.307-3.306
			c-0.099-0.1-2.466-2.411-4.876,0l-14.33,14.33C100.674,17.907,100.417,18.005,100.161,18.005z"/>
	</g>
	<g>
		<path fill="#FFFFFF" d="M105.719,23.55c-0.256,0-0.512-0.098-0.708-0.294c-0.39-0.39-0.39-1.022,0-1.413l12.062-12.062
			c0.391-0.391,1.023-0.391,1.414,0s0.391,1.024,0,1.414l-12.062,12.062C106.23,23.453,105.975,23.55,105.719,23.55z"/>
	</g>
	<g>
		<path fill="#FFFFFF" d="M117.533,24.561c-0.255,0-0.511-0.097-0.707-0.293c-0.391-0.391-0.391-1.023,0-1.414l12.073-12.073
			c0.391-0.39,1.023-0.391,1.414,0s0.391,1.024,0,1.415L118.24,24.268C118.045,24.463,117.789,24.561,117.533,24.561z"/>
	</g>
</g>
<g>
</g>
<g>
</g>
<g>
</g>
<g>
</g>
<g>
</g>
<g>
</g>
</svg>
